HIERARCHY
ROOT root
{
	OFFSET	0	13.1	24.9
	CHANNELS 6  Xposition Yposition Zposition Xrotation Yrotation Zrotation
	JOINT spine_1
	{
		OFFSET	0	9.99999	0
		CHANNELS 3  Xrotation Yrotation Zrotation
		JOINT spine_2
		{
			OFFSET	0	112	-10
			CHANNELS 3  Xrotation Yrotation Zrotation
			JOINT spine_3
			{
				OFFSET	0	206.5	19.3
				CHANNELS 3  Xrotation Yrotation Zrotation
				JOINT spine_4
				{
					OFFSET	0	110.4	14.6
					CHANNELS 3  Xrotation Yrotation Zrotation
					JOINT neck_1
					{
						OFFSET	0	71.8	-50.3
						CHANNELS 3  Xrotation Yrotation Zrotation
						JOINT neck_2
						{
							OFFSET	0	86.2	-25.8
							CHANNELS 3  Xrotation Yrotation Zrotation
							JOINT head_ee
							{
								OFFSET	0	179.8	-8.7
								CHANNELS 3  Xrotation Yrotation Zrotation
								End Site
								{
									OFFSET	1	0	0
								}
							}
						}
					}
					JOINT left_clavicle
					{
						OFFSET	-43.2	22.4	-70.8
						CHANNELS 3  Xrotation Yrotation Zrotation
						JOINT left_shoulder
						{
							OFFSET	-93.9	-5.79999	48.7
							CHANNELS 3  Xrotation Yrotation Zrotation
							JOINT left_elbow
							{
								OFFSET	-291.4	-30.8	15.2
								CHANNELS 3  Xrotation Yrotation Zrotation
								JOINT left_lowarm_twist
								{
									OFFSET	-110.7	-3.89999	13.6
									CHANNELS 3  Xrotation Yrotation Zrotation
									JOINT left_hand
									{
										OFFSET	-110.7	-3.89999	13.6
										CHANNELS 3  Xrotation Yrotation Zrotation
										JOINT left_ee
										{
											OFFSET	-80.8	-5.10001	12.1
											CHANNELS 3  Xrotation Yrotation Zrotation
											End Site
											{
												OFFSET	1	0	0
											}
										}
									}
								}
							}
						}
					}
					JOINT right_clavicle
					{
						OFFSET	43.2	22.4	-70.8
						CHANNELS 3  Xrotation Yrotation Zrotation
						JOINT right_shoulder
						{
							OFFSET	93.9	-5.79999	48.7
							CHANNELS 3  Xrotation Yrotation Zrotation
							JOINT right_elbow
							{
								OFFSET	291.4	-30.8	15.2
								CHANNELS 3  Xrotation Yrotation Zrotation
								JOINT right_lowarm_twist
								{
									OFFSET	110.7	-3.89999	13.6
									CHANNELS 3  Xrotation Yrotation Zrotation
									JOINT right_hand
									{
										OFFSET	110.7	-3.89999	13.6
										CHANNELS 3  Xrotation Yrotation Zrotation
										JOINT right_ee
										{
											OFFSET	80.8	-5.10001	12.1
											CHANNELS 3  Xrotation Yrotation Zrotation
											End Site
											{
												OFFSET	1	0	0
											}
										}
									}
								}
							}
						}
					}
				}
			}
		}
	}
	JOINT left_hip
	{
		OFFSET	-82.8	-127.5	0.300001
		CHANNELS 3  Xrotation Yrotation Zrotation
		JOINT left_knee
		{
			OFFSET	-28.2	-396.7	2.2
			CHANNELS 3  Xrotation Yrotation Zrotation
			JOINT left_ankle
			{
				OFFSET	-11.7	-411.3	35.4
				CHANNELS 3  Xrotation Yrotation Zrotation
				JOINT left_toes
				{
					OFFSET	0	-60	-88.6
					CHANNELS 3  Xrotation Yrotation Zrotation
					JOINT left_foot_ee
					{
						OFFSET	-22.5	-16.5	-42.2
						CHANNELS 3  Xrotation Yrotation Zrotation
						End Site
						{
							OFFSET	1	0	0
						}
					}
				}
			}
		}
	}
	JOINT right_hip
	{
		OFFSET	82.8	-127.5	0.300001
		CHANNELS 3  Xrotation Yrotation Zrotation
		JOINT right_knee
		{
			OFFSET	28.2	-396.7	2.2
			CHANNELS 3  Xrotation Yrotation Zrotation
			JOINT right_ankle
			{
				OFFSET	11.7	-411.3	35.4
				CHANNELS 3  Xrotation Yrotation Zrotation
				JOINT right_toes
				{
					OFFSET	0	-60	-88.6
					CHANNELS 3  Xrotation Yrotation Zrotation
					JOINT right_foot_ee
					{
						OFFSET	22.5	-16.5	-42.2
						CHANNELS 3  Xrotation Yrotation Zrotation
						End Site
						{
							OFFSET	1	0	0
						}
					}
				}
			}
		}
	}
}
MOTION
Frames: 6
Frame Time: 0.02
3522.39 708.904 -1514.86 -0.120088 71.4836 2.66921 -0.877815 0.116095 -0.645766 -0.877597 0.156951 -0.63707 -0.879262 0.296373 -0.585369 -0.879685 0.200207 -0.624828 -19.0248 4.91774 7.20838 -18.9166 5.69073 8.66157 -0.0 0.0 -0.0 7.67915 24.7339 13.2706 -15.5805 -28.5276 61.1824 3.16489 -57.4562 1.73505 -25.5764 -1.56351 2.84462 -2.43997 27.2887 -2.69007 -0.0 0.0 -0.0 10.9068 0.361663 -21.5644 -33.3315 34.5758 -51.9515 0.474518 13.2281 -0.055022 -38.6803 2.81192 -3.96427 7.31662 -25.0041 -70.0268 0.0 0.0 0.0 -7.06935 5.44924 -4.96496 -0.547632 0.022162 0.0811179 27.0251 0.238855 -3.58276 -24.3591 0.0 0.0 -0.0 0.0 -0.0 0.920096 -4.34631 0.239555 3.9607 0.183247 0.579953 18.9851 30.1394 3.2727 -36.8158 0.0 0.0 0.0 0.0 0.0 
3518.33 707.463 -1516.76 0.99476 71.9037 1.44178 -0.903376 0.158526 -0.617501 -0.903186 0.197497 -0.606162 -0.905227 0.329166 -0.545976 -0.905563 0.23881 -0.591108 -19.1772 4.77438 7.05139 -19.0734 5.51704 8.46945 -0.0 0.0 -0.0 7.55009 25.6189 12.983 -16.2522 -29.2895 61.1007 3.23084 -57.9892 1.79082 -25.741 -1.57753 2.86038 -2.4276 27.1413 -2.69804 -0.0 0.0 -0.0 10.9374 1.06509 -21.6701 -33.5251 34.6718 -51.3061 0.45172 12.6134 -0.0499241 -38.8212 2.82668 -3.97472 7.32892 -25.0584 -70.2873 0.0 0.0 0.0 -7.07317 5.41052 -5.04013 -0.874051 0.0350018 0.129566 25.4778 -0.600906 -3.41273 -25.2046 0.0 0.0 -0.0 0.0 -0.0 0.375046 -4.08937 0.496211 3.60958 0.165384 0.529056 18.4985 30.2116 3.20065 -37.5544 0.0 0.0 0.0 0.0 0.0 
3511.53 711.823 -1526.7 2.01603 72.2411 -0.340242 -1.04024 0.179526 -0.540492 -1.0401 0.213554 -0.527974 -1.04205 0.32828 -0.465398 -1.04227 0.25066 -0.511402 -17.082 4.41689 5.54852 -17.0243 5.38572 6.80493 -0.0 0.0 -0.0 7.54965 24.3793 13.1302 -15.9344 -28.1876 62.2514 2.85199 -54.698 1.47533 -24.91 -1.50721 2.78039 -2.39949 28.2417 -1.98081 -0.0 0.0 -0.0 10.9247 2.92075 -21.7354 -32.1325 35.2517 -53.7776 0.42662 11.9332 -0.0445884 -38.7826 2.82263 -3.97186 7.35713 -25.4778 -70.8755 0.0 0.0 0.0 -6.8281 5.44486 -5.19931 -3.06796 0.114105 0.456952 24.4519 -0.393924 -3.29208 -25.0185 0.0 0.0 -0.0 0.0 -0.0 -1.17521 -3.63278 0.805453 3.50015 0.15988 0.513171 21.2935 30.4035 3.63405 -36.3596 0.0 0.0 0.0 0.0 0.0 
3501.47 708.971 -1534.6 4.90186 71.3458 -3.45613 -1.1226 0.317712 -0.453035 -1.12255 0.345895 -0.431901 -1.12523 0.435733 -0.341054 -1.12519 0.376402 -0.40559 -17.0467 4.42664 5.2007 -17.0021 5.59517 6.48191 -0.0 0.0 -0.0 7.23618 24.4707 12.6777 -16.8907 -27.608 62.5618 2.72591 -53.4683 1.37322 -24.3408 -1.45972 2.72502 -2.51729 28.6676 -2.39701 -0.0 0.0 -0.0 10.8718 3.07187 -21.6285 -28.5837 38.1534 -54.2327 0.400081 11.2103 -0.0392648 -41.2685 3.08707 -4.15027 7.33103 -26.8298 -70.1196 0.0 0.0 0.0 -6.70211 7.44562 -5.06724 -7.51228 0.235626 1.12801 27.6637 1.3638 -3.64715 -21.368 0.0 0.0 -0.0 0.0 -0.0 -3.19347 -3.89411 0.622111 4.95647 0.235605 0.723705 20.6214 28.9332 3.46685 -36.0229 0.0 0.0 0.0 0.0 0.0 
3493.61 708.567 -1540.79 6.41272 71.8904 -5.10663 -1.11674 0.3941 -0.444293 -1.11673 0.421573 -0.418316 -1.11993 0.506249 -0.31052 -1.11978 0.450856 -0.386576 -15.127 4.2827 3.35895 -15.1278 6.206 4.59494 -0.0 0.0 -0.0 6.50255 24.5256 11.646 -17.244 -27.7578 63.6487 2.58898 -52.0469 1.26421 -23.7986 -1.415 2.67185 -2.65263 28.7 -3.10869 -0.0 0.0 -0.0 10.8143 2.96353 -21.5011 -23.9324 38.7876 -54.7563 0.398476 11.1665 -0.0389534 -41.6992 3.13366 -4.18001 7.35538 -26.741 -70.6652 0.0 0.0 0.0 -7.13251 8.87929 -5.46349 -8.47876 0.255135 1.27503 25.801 -0.187187 -3.44684 -20.4805 0.0 0.0 -0.0 0.0 -0.0 -5.12456 -2.65405 0.79768 5.74071 0.278599 0.836277 20.8328 29.9783 3.54532 -34.6052 0.0 0.0 0.0 0.0 0.0 
3483.51 707.033 -1546.21 7.17142 71.2671 -6.09106 -1.14459 0.551855 -0.46321 -1.14466 0.580211 -0.427155 -1.14921 0.662834 -0.282408 -1.1488 0.609914 -0.383549 -14.164 5.63365 3.29931 -14.1914 8.74812 4.91519 -0.0 0.0 -0.0 6.84984 24.9778 12.0866 -17.4021 -24.9769 64.4167 2.31507 -48.9054 1.05285 -22.9713 -1.34775 2.58992 -2.56633 28.7718 -2.60652 -0.0 0.0 -0.0 10.7945 1.54428 -21.3934 -20.3702 41.3511 -55.5438 0.279668 7.8877 -0.0192809 -44.113 3.39881 -4.34016 7.34389 -27.5007 -70.2634 0.0 0.0 0.0 -6.51629 9.60358 -4.68888 -10.631 0.289652 1.60347 27.3239 5.27217 -3.59604 -18.9497 0.0 0.0 -0.0 0.0 -0.0 -6.30934 -1.64276 1.56918 4.82735 0.228674 0.705114 22.1567 31.5986 3.82279 -33.3271 0.0 0.0 0.0 0.0 0.0 
